<?xml version="1.0" encoding="UTF-8"?>
<svg version="1.1" xmlns="http://www.w3.org/2000/svg" width="784" height="736">
<path d="M0 0 C258.72 0 517.44 0 784 0 C784 242.88 784 485.76 784 736 C525.28 736 266.56 736 0 736 C0 493.12 0 250.24 0 0 Z " fill="#070607" transform="translate(0,0)"/>
<path d="M0 0 C7.55800049 -0.12797382 15.11571626 -0.21483829 22.67456055 -0.2746582 C25.23977092 -0.29962571 27.80491146 -0.33361183 30.36987305 -0.37719727 C57.72917067 -0.83007756 57.72917067 -0.83007756 70 5 C71.39955933 5.62781372 71.39955933 5.62781372 72.82739258 6.26831055 C75.3099542 7.43631608 77.71561376 8.68876939 80.125 10 C80.92164063 10.4125 81.71828125 10.825 82.5390625 11.25 C87.09957709 13.68227445 90.41495141 16.21963242 94 20 C96.16295015 21.36997467 96.16295015 21.36997467 98.4375 22.5 C108.68860831 28.42354462 117.63892084 37.80808833 125 47 C125.62648438 47.76183594 126.25296875 48.52367187 126.8984375 49.30859375 C129.98364631 53.14306756 132.2271108 56.39472605 134 61 C134.92115251 62.70807994 135.88072216 64.39592549 136.875 66.0625 C137.61363281 67.31740234 137.61363281 67.31740234 138.3671875 68.59765625 C139.90060847 71.04012909 139.90060847 71.04012909 141.96484375 72.8515625 C144.62889514 75.66390082 146.10241923 78.82808497 147.6875 82.3125 C147.99494141 82.95123047 148.30238281 83.58996094 148.61914062 84.24804688 C149.0609668 85.20227539 149.0609668 85.20227539 149.51171875 86.17578125 C149.90556763 87.02523315 149.90556763 87.02523315 150.30737305 87.8918457 C152.24483251 93.78890686 152.15280707 99.98817615 152.16113281 106.12548828 C152.16609772 107.01271072 152.17106262 107.89993317 152.17617798 108.81404114 C152.19071402 111.73280633 152.1975881 114.65151714 152.203125 117.5703125 C152.20595238 118.57369534 152.20877975 119.57707817 152.21169281 120.61086655 C152.22665264 125.92319754 152.23590171 131.2355016 152.24023438 136.54785156 C152.24570708 142.00464232 152.26971908 147.46118207 152.29820633 152.91789436 C152.31693552 157.14068291 152.32204381 161.3634123 152.32357025 165.58623886 C152.32657531 167.59625492 152.33453017 169.60627048 152.34775543 171.61624527 C152.43495472 185.89012482 151.75884479 198.60731043 145.25 211.625 C144.722854 212.7063623 144.722854 212.7063623 144.18505859 213.80957031 C135.35585926 231.59529407 122.37216836 248.39136753 107 261 C106.22914063 261.64710938 105.45828125 262.29421875 104.6640625 262.9609375 C93.73145044 271.96223639 81.6838987 278.42174568 69.13720703 284.85253906 C66.94724278 285.95486457 66.94724278 285.95486457 64.97917175 287.54745483 C60.70919952 289.62935143 56.88756089 289.41904277 52.19604492 289.38818359 C50.72192894 289.39606903 50.72192894 289.39606903 49.21803284 289.40411377 C45.97201601 289.4173078 42.72649051 289.40857552 39.48046875 289.3984375 C37.2199138 289.40045889 34.95935948 289.40337087 32.69880676 289.40713501 C27.96019281 289.41155797 23.22174852 289.40512984 18.4831543 289.39111328 C12.42044348 289.37405096 6.35813196 289.38384427 0.29543591 289.40183067 C-4.37410973 289.41269421 -9.04356144 289.40920984 -13.71310997 289.4014473 C-15.94774104 289.39945088 -18.18238073 289.40188489 -20.41700172 289.40888596 C-23.54751637 289.41653927 -26.67739388 289.40484019 -29.80786133 289.38818359 C-30.72501923 289.39425629 -31.64217712 289.40032898 -32.58712769 289.40658569 C-38.41184153 289.34942428 -42.64716062 288.30532794 -48 286 C-49.86696365 285.47078196 -51.74144087 284.96672262 -53.625 284.5 C-58.6053998 283.17051568 -63.16079491 281.92640878 -66.8125 278.1015625 C-69.23413632 275.77506189 -71.61059755 274.40440478 -74.5625 272.8125 C-80.05161989 269.70557762 -84.75835585 266.13004593 -89.52734375 262.015625 C-91.89994702 259.96998115 -91.89994702 259.96998115 -94.42578125 258.609375 C-97.82633191 256.48338581 -100.4453572 253.84588754 -103.25 251 C-103.79140625 250.46632813 -104.3328125 249.93265625 -104.890625 249.3828125 C-107.30832895 246.95302003 -108.90179449 245.29461654 -110 242 C-110.66 241.34 -111.32 240.68 -112 240 C-114 238 -114 238 -115 235 C-115.721875 234.319375 -116.44375 233.63875 -117.1875 232.9375 C-126.53567934 223.8564115 -133.69614933 207.52240928 -136.52734375 194.94140625 C-136.82027556 193.00646726 -136.82027556 193.00646726 -138 192 C-138.1006091 189.08456056 -138.13615006 186.19277453 -138.12939453 183.27685547 C-138.13114685 182.36136429 -138.13289917 181.44587311 -138.13470459 180.50263977 C-138.1391274 177.45747006 -138.13618217 174.41235787 -138.1328125 171.3671875 C-138.13348576 169.25546253 -138.13445598 167.14373764 -138.13571167 165.03201294 C-138.13718951 160.5949022 -138.13503264 156.15781154 -138.13037109 151.72070312 C-138.12469461 146.04128341 -138.12793902 140.36191116 -138.13394356 134.68249321 C-138.1375647 130.31582281 -138.13640308 125.94916357 -138.13381577 121.58249283 C-138.13314971 119.4893811 -138.13396368 117.39626834 -138.13629532 115.30315781 C-138.13884496 112.36858204 -138.13494774 109.43408189 -138.12939453 106.49951172 C-138.13141876 105.63792953 -138.13344299 104.77634735 -138.13552856 103.88865662 C-138.11326326 97.51246988 -138.05773058 91.3113012 -134.9609375 85.58203125 C-134.54851807 84.80786865 -134.13609863 84.03370605 -133.71118164 83.23608398 C-133.2702417 82.43630127 -132.82930176 81.63651855 -132.375 80.8125 C-131.92568115 79.98113525 -131.4763623 79.14977051 -131.01342773 78.29321289 C-129.68867264 75.85469009 -128.34732623 73.42610969 -127 71 C-126.63438965 70.33516602 -126.2687793 69.67033203 -125.89208984 68.98535156 C-120.60138133 59.40092089 -120.60138133 59.40092089 -117 57 C-116.71898438 56.27039063 -116.43796875 55.54078125 -116.1484375 54.7890625 C-114.62451025 51.08809633 -112.22843505 48.35547574 -109.625 45.375 C-109.09406738 44.76325928 -108.56313477 44.15151855 -108.01611328 43.52124023 C-88.28977537 21.17577022 -88.28977537 21.17577022 -77.125 19.375 C-71.96428571 20.40714286 -71.96428571 20.40714286 -70 23 C-69.29895703 26.12630536 -69.30983114 28.8713398 -70 32 C-72.14673276 35.11557587 -74.8642949 37.39039499 -77.75 39.8125 C-79.31881025 41.20970122 -80.88651254 42.60814745 -82.453125 44.0078125 C-83.22849609 44.68618164 -84.00386719 45.36455078 -84.80273438 46.06347656 C-109.35304802 67.70048632 -125.75174359 99.80037855 -127.9140625 132.75 C-128.04186687 137.58332876 -128.10130714 142.41507797 -128.125 147.25 C-128.12983398 148.1977832 -128.13466797 149.14556641 -128.13964844 150.12207031 C-128.12713441 155.19025242 -127.79400171 159.98335283 -127 165 C-126.85911137 167.29074475 -126.7341655 169.58252448 -126.625 171.875 C-126.22733964 177.74049032 -125.19597573 182.57901643 -123 188 C-122.78472656 188.62777344 -122.56945312 189.25554687 -122.34765625 189.90234375 C-120.46843045 195.33986692 -117.85907944 200.36332663 -115.20703125 205.4609375 C-114 208 -114 208 -114 210 C-113.01 210.33 -112.02 210.66 -111 211 C-109.46484375 213.109375 -109.46484375 213.109375 -107.9375 215.75 C-107.43089844 216.61109375 -106.92429687 217.4721875 -106.40234375 218.359375 C-105 221 -105 221 -104.12890625 223.515625 C-102.65685676 226.75515261 -100.58042149 228.56005991 -98 231 C-97.08134522 231.99625955 -96.1727648 233.00188435 -95.2734375 234.015625 C-72.19239229 259.85226033 -39.59781225 277.98464468 -4.55883789 280.21948242 C11.37261357 280.73626599 26.61111778 280.31774393 42 276 C43.11060791 275.70246826 43.11060791 275.70246826 44.24365234 275.39892578 C62.54453951 270.37726781 79.62776023 261.37665529 94 249 C94.88816406 248.24976563 95.77632812 247.49953125 96.69140625 246.7265625 C124.53953789 222.49231054 140.1061104 188.2776951 142.8125 151.75 C144.9321908 113.22731421 129.75028033 79.39208242 105.3203125 50.55859375 C102.87651946 47.8638388 100.35791137 45.49718449 97.51953125 43.23046875 C95.17534339 41.33221894 93.13128913 39.13128913 91 37 C87.80162914 34.13829975 84.87467384 32.51055233 80.93457031 30.86523438 C77.68099302 29.41007563 74.6357288 27.61090796 71.5625 25.8125 C70.92634766 25.44447266 70.29019531 25.07644531 69.63476562 24.69726562 C68.08781915 23.80166504 66.54361338 22.9013332 65 22 C65 21.34 65 20.68 65 20 C63.51113281 19.63648438 63.51113281 19.63648438 61.9921875 19.265625 C52.93286256 17.03667228 43.9526812 14.6298501 35 12 C35 11.34 35 10.68 35 10 C32.81516378 9.77942947 30.63027806 9.55937429 28.4453125 9.34008789 C26.6027085 9.1546204 24.76025998 8.96760176 22.91796875 8.77905273 C17.31481957 8.21048033 11.71980921 7.72453585 6.09375 7.44140625 C3.38278702 6.86987861 1.95705425 5.9526064 0 4 C0 2.68 0 1.36 0 0 Z " fill="#487481" transform="translate(182,425)"/>
<path d="M0 0 C7.34652987 -0.07652334 14.69295564 -0.12879747 22.03979492 -0.16479492 C24.5352767 -0.17981335 27.0307324 -0.20023414 29.52612305 -0.22631836 C33.12815825 -0.26300775 36.72984224 -0.27979647 40.33203125 -0.29296875 C41.43456741 -0.30845261 42.53710358 -0.32393646 43.67304993 -0.33988953 C66.47047482 -0.34476163 87.3609772 12.54899128 104.41015625 26.6953125 C107.64783346 29.35227611 110.99162753 31.87937756 114.3046875 34.44140625 C114.86414063 34.95574219 115.42359375 35.47007813 116 36 C116 36.66 116 37.32 116 38 C116.66 38 117.32 38 118 38 C120.13819755 40.33865357 121.76101614 42.34141776 122.84765625 45.3359375 C124.24653499 48.56995547 126.13711521 50.77449297 128.4375 53.4375 C136 62.19604613 136 62.19604613 136 67 C136.66 67 137.32 67 138 67 C141.10327419 72.26539146 143.7795858 77.50614476 145.89755249 83.24415588 C146.93517294 85.98194077 146.93517294 85.98194077 148.2706604 88.38877869 C153.29413755 98.32791389 152.65400005 108.27920539 152.5234375 119.12890625 C152.51663314 121.17048064 152.51191996 123.21206295 152.50918579 125.25364685 C152.49584779 130.6007573 152.45167757 135.94719269 152.40161133 141.29406738 C152.36620183 145.6431006 152.35312504 149.99206623 152.34119225 154.34121799 C152.32633543 159.56215515 152.30120506 164.78302354 152.2734375 170.00390625 C152.26852673 170.98619265 152.26361595 171.96847904 152.25855637 172.98053169 C152.09265757 201.28115926 152.09265757 201.28115926 147.578125 207.5859375 C145.44804893 210.84432119 143.86498964 214.30531685 142.1875 217.8125 C132.03078426 238.54228782 114.13917751 258.16379975 95 271 C94.19433594 271.55429687 93.38867188 272.10859375 92.55859375 272.6796875 C85.24335576 277.65553466 77.64363742 281.73535182 69.71020508 285.62670898 C66.64952597 287.00571238 66.64952597 287.00571238 64 289 C62.62454434 289.10186962 61.24392838 289.13517556 59.86471558 289.14044189 C58.97314255 289.14615204 58.08156952 289.15186218 57.16297913 289.15774536 C56.17704269 289.15886322 55.19110626 289.15998108 54.17529297 289.16113281 C53.14275894 289.16609772 52.11022491 289.17106262 51.04640198 289.17617798 C47.61165716 289.19084774 44.17695858 289.19761095 40.7421875 289.203125 C38.36141966 289.20887419 35.98065184 289.21463195 33.59988403 289.22039795 C28.59783715 289.2309228 23.59580641 289.23675518 18.59375 289.24023438 C12.18784334 289.24571046 5.78215017 289.26971347 -0.62368965 289.29820633 C-5.54624041 289.31684633 -10.46874002 289.32203913 -15.39132309 289.32357025 C-17.75239092 289.32659617 -20.11345787 289.3346226 -22.47449112 289.34775543 C-25.78279982 289.36483768 -29.09059069 289.36292964 -32.39892578 289.35644531 C-33.37271683 289.3656601 -34.34650787 289.37487488 -35.34980774 289.3843689 C-41.04501639 289.34945666 -44.93396263 288.62759112 -50 286 C-51.155 285.4328125 -52.31 284.865625 -53.5 284.28125 C-55.83333333 283.09375 -58.16666667 281.90625 -60.5 280.71875 C-62.89333785 279.54345016 -65.23696442 278.46128549 -67.69140625 277.44140625 C-71.68747029 275.70049996 -74.59808611 273.70764575 -78 271 C-78 270.34 -78 269.68 -78 269 C-78.598125 268.896875 -79.19625 268.79375 -79.8125 268.6875 C-82.46104026 267.85510163 -83.4530279 267.32045815 -85 265 C-85.36528977 261.5906288 -85.6140629 259.11976176 -83.9375 256.0625 C-80.74778818 254.3133032 -78.59024762 254.52914785 -75 255 C-72.92837896 256.0622654 -71.07802412 257.25650424 -69.1875 258.61328125 C-66.86901996 260.08303199 -64.48249291 261.11184046 -61.95019531 262.15844727 C-59.88867804 263.04803791 -57.89951029 264.03276925 -55.8984375 265.05078125 C-47.49782483 269.2808836 -39.18375598 272.85695192 -30.125 275.4375 C-29.30692871 275.67186768 -28.48885742 275.90623535 -27.64599609 276.14770508 C-16.27087873 279.21529252 -5.01095942 280.36886634 6.75 280.3125 C7.97501221 280.30758545 9.20002441 280.3026709 10.4621582 280.29760742 C19.96814981 280.17522884 28.78937406 279.30498947 38 277 C38.67466309 276.83902832 39.34932617 276.67805664 40.04443359 276.51220703 C56.87198237 272.42411409 71.99074182 264.93192018 86.09375 254.96875 C89 253 89 253 92 252 C92 251.34 92 250.68 92 250 C93.72265625 248.51953125 93.72265625 248.51953125 96.0625 246.8125 C103.53522643 241.36118686 103.53522643 241.36118686 108.94140625 234.04296875 C110.24448148 231.52817781 111.97953669 229.97497445 114 228 C116.47452983 224.76407638 118.72864729 221.38083947 121 218 C121.60457031 217.10539063 122.20914063 216.21078125 122.83203125 215.2890625 C140.67037139 188.16234917 146.39905775 152.76316482 140.9375 120.9375 C138.82050116 111.041529 135.4586394 101.49564052 132 92 C131.73783691 91.26910156 131.47567383 90.53820312 131.20556641 89.78515625 C127.58046876 79.7777112 123.54987695 68.90531042 114.66015625 62.43359375 C112.29772957 60.39356883 110.50050763 58.00550455 108.5625 55.5625 C105.87697466 52.18511051 103.27258223 49.17847851 99.9375 46.4375 C98.968125 45.633125 97.99875 44.82875 97 44 C97 43.34 97 42.68 97 42 C96.45472656 41.75121094 95.90945313 41.50242188 95.34765625 41.24609375 C92.51623451 39.74322597 90.02559222 37.95339187 87.4375 36.0625 C86.48746094 35.37285156 85.53742188 34.68320312 84.55859375 33.97265625 C82 32 82 32 80.59765625 30.43359375 C78.59418584 28.63585869 76.39092887 27.77067196 73.91357422 26.77246094 C72.04631669 26.01869686 70.21159704 25.18586187 68.37890625 24.3515625 C50.31629367 16.13592627 32.889385 11.97818094 13.10546875 10.40820312 C4.68148984 9.57554394 4.68148984 9.57554394 1.2109375 6.64453125 C0 4 0 4 0 0 Z " fill="#F25A1D" transform="translate(182,20)"/>
<path d="M0 0 C7.61300091 -0.10208695 15.22582288 -0.17175219 22.83935547 -0.21972656 C25.42503455 -0.23974306 28.01066894 -0.2669647 30.59619141 -0.30175781 C34.32986536 -0.35071459 38.06293669 -0.37306955 41.796875 -0.390625 C42.93799744 -0.41127014 44.07911987 -0.43191528 45.25482178 -0.45318604 C56.20563395 -0.45619312 65.50094934 2.86073644 75.125 7.875 C75.80022705 8.22087158 76.4754541 8.56674316 77.17114258 8.9230957 C92.10152901 16.64780048 92.10152901 16.64780048 98 23 C99.50665562 24.41112492 101.02886985 25.80573907 102.5625 27.1875 C103.67818359 28.19876953 103.67818359 28.19876953 104.81640625 29.23046875 C106.88139216 31.03657354 106.88139216 31.03657354 109.0859375 32.03125 C111.32555377 33.16477007 112.45419283 34.3915807 114.0625 36.3125 C114.66191406 37.02277344 115.26132812 37.73304688 115.87890625 38.46484375 C116.57886719 39.30144531 117.27882813 40.13804687 118 41 C118.88269537 42.02336127 119.76690135 43.04542087 120.65234375 44.06640625 C128.88490352 53.59336675 135.72389169 63.1877742 141.6875 74.3125 C142.1515625 75.16585937 142.615625 76.01921875 143.09375 76.8984375 C150.61120756 91.26176419 151.60445017 103.72082864 151.53125 119.62890625 C151.53395077 121.71150391 151.53783803 123.79410034 151.54284668 125.87669373 C151.5487129 130.22122313 151.54027116 134.56542148 151.52148438 138.90991211 C151.49868254 144.44974109 151.51184446 149.98879521 151.53577423 155.52859592 C151.55029808 159.82258334 151.54559636 164.11639007 151.53526306 168.41038322 C151.53261469 170.45191479 151.53579816 172.49346333 151.54518127 174.53497505 C151.6005701 189.96708915 149.45754206 201.49301671 141.75 215.0625 C141.26329834 215.92955566 140.77659668 216.79661133 140.27514648 217.68994141 C136.60028188 224.14380509 132.70102574 230.2371761 128 236 C127.56606934 236.53254395 127.13213867 237.06508789 126.68505859 237.61376953 C116.68469731 249.79602782 106.25013563 261.28808139 93 270 C91.97003906 270.67804688 90.94007813 271.35609375 89.87890625 272.0546875 C78.41808951 279.34668375 61.1533614 290.20497593 47 289 C44.21899674 286.68249729 44.0134264 285.0939848 43.5 281.5 C44 278 44 278 46.109375 275.94921875 C49.25166945 273.83029317 52.19020749 272.60661671 55.75 271.3125 C61.73901807 269.04305641 67.40986545 266.38499697 73.0625 263.375 C73.76407227 263.00286377 74.46564453 262.63072754 75.18847656 262.24731445 C80.54762613 259.35226738 85.7594144 256.43897557 90 252 C91.1086473 251.18559084 92.23439127 250.3940077 93.375 249.625 C96.60399303 247.35324499 99.26777454 244.86550475 102 242 C103.29084873 240.72833586 104.58259346 239.4575809 105.875 238.1875 C112.13826777 231.88877977 117.37704199 226.17311855 121 218 C121.66105466 216.66387539 122.32628188 215.32978424 123 214 C123.66 214 124.32 214 125 214 C125.226875 213.21625 125.45375 212.4325 125.6875 211.625 C126.71151541 208.79676695 127.76468304 206.54443765 129.1875 203.9375 C145.04878388 172.73265961 146.41047988 135.41520955 135.8125 102.4375 C132.68060107 93.16138634 128.60111018 84.61980134 124 76 C123.07781801 74.10684333 122.16034416 72.21137738 121.25 70.3125 C119.00467116 65.84429561 116.70385622 62.25547301 112.625 59.25 C110.14920504 57.12789003 108.99170849 55.54180507 107.3125 52.8125 C103.73107802 47.21480189 99.0996851 43.19834541 94 39 C93.28199219 38.40832031 92.56398438 37.81664062 91.82421875 37.20703125 C87.7396476 33.99489277 83.82278064 31.99563337 79 30 C75.57725059 28.14538248 72.15792335 26.28107542 69 24 C69 23.34 69 22.68 69 22 C68.45472656 21.82984375 67.90945313 21.6596875 67.34765625 21.484375 C61.02080001 19.45112889 54.88727738 17.07372474 49.015625 13.94140625 C45.22927797 12.17297673 41.09298802 11.71279247 37 11 C36.06285156 10.835 35.12570312 10.67 34.16015625 10.5 C29.07167672 9.6617434 24.00092973 8.98014943 18.86328125 8.53515625 C17.96786621 8.45587891 17.07245117 8.37660156 16.14990234 8.29492188 C14.36866388 8.1422901 12.58638302 8.00128899 10.80322266 7.87304688 C7.27607466 7.57204149 4.58925372 7.29951509 1.41015625 5.68359375 C0 4 0 4 0 0 Z " fill="#F55B1E" transform="translate(587,425)"/>
<path d="M0 0 C7.47476478 -0.02533721 14.9495185 -0.0428615 22.42431641 -0.05493164 C24.96761489 -0.05996305 27.51091047 -0.06678881 30.05419922 -0.07543945 C33.70801508 -0.08755706 37.36179272 -0.09324022 41.015625 -0.09765625 C42.15429016 -0.10281754 43.29295532 -0.10797882 44.46612549 -0.11329651 C46.05732208 -0.11340981 46.05732208 -0.11340981 47.68066406 -0.11352539 C48.61332092 -0.115746 49.54597778 -0.11796661 50.50689697 -0.12025452 C52.81956335 -0.00870334 54.78646647 0.34570684 57 1 C57 1.66 57 2.32 57 3 C58.2375 2.9071875 58.2375 2.9071875 59.5 2.8125 C71.7364396 3.46802355 84.11952596 12.37477648 94 19 C94.96035156 19.63679688 95.92070313 20.27359375 96.91015625 20.9296875 C102.16946416 24.49506923 102.16946416 24.49506923 104 26 C104 26.66 104 27.32 104 28 C104.58265625 28.268125 105.1653125 28.53625 105.765625 28.8125 C108.02786601 30.01480991 109.80576318 31.33825913 111.75 33 C112.36359375 33.515625 112.9771875 34.03125 113.609375 34.5625 C115 36 115 36 115 38 C115.66 38 116.32 38 117 38 C118.65625 39.6796875 118.65625 39.6796875 120.5 41.875 C122.28933258 43.99035504 124.04019124 46.04019124 126 48 C126.28875 48.7425 126.5775 49.485 126.875 50.25 C128.67813833 54.65767148 131.09311438 58.11578652 134.5 61.4375 C139.63399601 66.69984591 141.52113829 71.97540688 143 79 C143.66 79 144.32 79 145 79 C146.50361244 81.50602073 147.04244149 83.31527963 147.4375 86.25 C147.85533372 90.06617271 147.85533372 90.06617271 149.51089478 93.64227295 C151.29706122 98.29851087 151.4237629 102.52917077 151.38818359 107.47363281 C151.39606903 108.84100082 151.39606903 108.84100082 151.40411377 110.23599243 C151.41723309 113.22521494 151.40860731 116.21389784 151.3984375 119.203125 C151.40045985 121.28961285 151.40337263 123.37610001 151.40713501 125.46258545 C151.41154682 129.8234331 151.40516146 134.1840958 151.39111328 138.54492188 C151.3739796 144.13600922 151.38389635 149.72666584 151.40183067 155.31773758 C151.41266309 159.6208217 151.40922537 163.92380338 151.4014473 168.22689056 C151.399446 170.28898927 151.40190209 172.35109727 151.40888596 174.41318512 C151.41649609 177.2903568 151.40490414 180.16682603 151.38818359 183.04394531 C151.39425629 183.89596527 151.40032898 184.74798523 151.40658569 185.62582397 C151.36855355 189.15443752 151.32351192 191.4066066 149.61270142 194.5446167 C148 196 148 196 145.80859375 196.2421875 C145.02613281 196.12101563 144.24367188 195.99984375 143.4375 195.875 C142.65246094 195.76929688 141.86742187 195.66359375 141.05859375 195.5546875 C139 195 139 195 137 193 C136.21155617 187.76760004 136.90419409 182.7895634 138.375 177.75 C147.83219694 145.34453371 141.73417806 108.87459602 125.953125 79.5 C125.30568675 78.33132978 124.65487423 77.16451969 124 76 C123.45859375 75.030625 122.9171875 74.06125 122.359375 73.0625 C114.13448662 59.32773493 102.46510064 47.07308325 89.75 37.4375 C88.99984619 36.8688623 88.24969238 36.30022461 87.47680664 35.71435547 C81.90065157 31.55068241 76.32821275 27.93132471 70 25 C69.39833008 24.71962891 68.79666016 24.43925781 68.17675781 24.15039062 C63.49649428 21.98672025 58.76931201 19.95866773 54 18 C53.06027344 17.60683594 52.12054687 17.21367188 51.15234375 16.80859375 C37.34655184 11.62379708 21.30580311 9.68183912 6.609375 9.37109375 C3.47717617 8.92564631 2.10693632 8.37281162 0 6 C-0.06578994 4.00108237 -0.07105119 1.99873753 0 0 Z " fill="#47727F" transform="translate(587,20)"/>
<path d="M0 0 C0.75689583 2.23461547 1.14629061 3.54435872 0.41430664 5.82421875 C0.08293701 6.43910156 -0.24843262 7.05398438 -0.58984375 7.6875 C-1.14152222 8.72620239 -1.14152222 8.72620239 -1.7043457 9.78588867 C-2.11128662 10.51654541 -2.51822754 11.24720215 -2.9375 12 C-3.35281982 12.75966064 -3.76813965 13.51932129 -4.19604492 14.30200195 C-18.94709659 40.92701742 -40.50746698 63.06893419 -67 78 C-67.89976562 78.50789062 -68.79953125 79.01578125 -69.7265625 79.5390625 C-86.2225894 88.29753933 -86.2225894 88.29753933 -94 86 C-92.80246094 85.5875 -91.60492187 85.175 -90.37109375 84.75 C-69.00241498 77.23588479 -51.3507437 66.79525315 -35 51 C-34.34386719 50.38382813 -33.68773437 49.76765625 -33.01171875 49.1328125 C-19.6188016 36.26329671 -5.95040909 17.85122728 0 0 Z " fill="#7B2F11" transform="translate(734,627)"/>
<path d="M0 0 C0.33 0.66 0.66 1.32 1 2 C-0.03141882 4.66277466 -1.12034038 7.22295405 -2.3125 9.8125 C-2.95505551 11.23539346 -3.59699693 12.65856442 -4.23828125 14.08203125 C-4.69581787 15.09064209 -4.69581787 15.09064209 -5.16259766 16.11962891 C-6.17304299 18.38856475 -7.10356357 20.68382669 -8 23 C-8.33 23 -8.66 23 -9 23 C-9.69071435 16.99462248 -7.35277376 13.17946402 -4.5 8.125 C-4.07074219 7.34125 -3.64148437 6.5575 -3.19921875 5.75 C-2.14384269 3.8268703 -1.07737013 1.91086748 0 0 Z " fill="#2C454E" transform="translate(54,498)"/>
<path d="M0 0 C0.6875 1.6875 0.6875 1.6875 1 4 C-0.3125 6.75 -0.3125 6.75 -2 9 C-2.66 9 -3.32 9 -4 9 C-2.94124926 5.59687262 -1.99097846 2.98646769 0 0 Z " fill="#324F59" transform="translate(59,489)"/>
</svg>
